<?xml version="1.0" standalone="no"?><!DOCTYPE svg PUBLIC "-//W3C//DTD SVG 1.1//EN" "http://www.w3.org/Graphics/SVG/1.1/DTD/svg11.dtd"><svg t="1614945145480" class="icon" viewBox="0 0 1024 1024" version="1.1" xmlns="http://www.w3.org/2000/svg" p-id="8210" xmlns:xlink="http://www.w3.org/1999/xlink" width="200" height="200"><defs><style type="text/css"></style></defs><path d="M832 39.025778a141.084444 141.084444 0 0 1 141.937778 132.323555l0.284444 9.329778v377.742222c0 74.808889-57.685333 136.533333-132.721778 141.368889l-9.500444 0.284445h-142.222222v141.653333c0 74.808889-57.685333 136.533333-132.721778 141.368889l-9.500444 0.284444h-375.466667A141.425778 141.425778 0 0 1 30.151111 851.000889l-0.284444-9.272889v-377.742222c0-75.377778 57.685333-136.533333 132.721777-141.368889l9.500445-0.284445h142.222222v-141.653333c0-75.377778 57.685333-136.533333 132.721778-141.368889l9.500444-0.284444h375.466667z m-517.688889 377.742222h-142.222222c-26.282667 0-47.672889 17.92-50.801778 41.301333l-0.398222 5.916445v377.742222c0 24.177778 19.342222 43.975111 44.771555 46.876444l6.428445 0.341334h375.466667c26.282667 0 42.837333-17.92 45.226666-41.301334l0.284445-5.916444v-141.653333h-136.533334A141.425778 141.425778 0 0 1 314.595556 567.694222l-0.284445-9.272889v-141.653333z m517.688889-283.306667h-375.466667c-28.444444 0-51.2 21.048889-51.2 47.217778v141.653333h142.222223c79.644444 0 142.222222 63.146667 142.222222 141.653334v141.653333h142.222222c28.444444 0 45.511111-21.048889 45.511111-47.217778v-377.742222c0-26.168889-17.066667-47.217778-45.511111-47.217778z m-284.444444 283.306667h-142.222223v141.653333c0 24.177778 19.342222 43.975111 44.771556 46.876445l6.428444 0.341333h136.533334v-141.653333c0-24.177778-14.563556-43.975111-39.139556-46.876445l-6.371555-0.341333z" fill="#dbdbdb" p-id="8211"></path></svg>