<?xml version="1.0" standalone="no"?><!DOCTYPE svg PUBLIC "-//W3C//DTD SVG 1.1//EN" "http://www.w3.org/Graphics/SVG/1.1/DTD/svg11.dtd"><svg t="1615349204855" class="icon" viewBox="0 0 1024 1024" version="1.1" xmlns="http://www.w3.org/2000/svg" p-id="1602" xmlns:xlink="http://www.w3.org/1999/xlink" width="200" height="200"><defs><style type="text/css"></style></defs><path d="M893.456828 709.055005" p-id="1603" fill="#cdcdcd"></path><path d="M491.889987 337.939709" p-id="1604" fill="#cdcdcd"></path><path d="M568.154951 338.993714" p-id="1605" fill="#cdcdcd"></path><path d="M965.704292 354.332051l-93.643774-68.060095c-29.951149-90.537016-97.055476-142.3071-184.909383-142.3071-12.565177 0-25.683962 1.073448-38.98592 3.201925-77.18287 12.311397-109.476367 56.132438-143.66298 102.517885-30.68793 41.638329-62.418608 84.690868-132.930545 112.612801-17.865903 7.076162-38.060851 10.662851-60.014862 10.662851-69.621661 0-147.363256-36.979216-189.054797-89.926102-4.380774-5.566786-11.661597-8.018627-18.507516-6.247284-6.862291 1.771343-12.033058 7.43432-13.170974 14.432711-3.564175 21.883403-8.287757 41.560558-8.287757 60.145845 0 194.693214 152.517649 355.581508 339.782683 377.60715l0 99.765191c0 9.868765 8.039093 17.869996 17.907858 17.869996s17.907858-8.001231 17.907858-17.869996l0-97.334839c9.209756 0.073678 6.500041 0.23536 9.671267 0.23536 24.068162 0 52.750411-1.877767 71.169923-5.440919l0 102.539374c0 9.868765 8.039093 17.869996 17.907858 17.869996s17.907858-8.001231 17.907858-17.869996L574.791092 719.277834c151.449317-35.080983 272.067442-141.451616 302.241672-275.141454l87.141686-60.764945c4.699022-3.324722 8.184403-8.716522 8.219195-14.467503C972.428438 363.144764 970.363406 357.717148 965.704292 354.332051zM853.388251 419.007049c-3.725858 2.635013-6.29538 6.596232-7.193843 11.063987-30.400381 151.547555-190.624549 265.827321-372.694257 265.827321-8.575306 0-17.051351-0.408299-25.475208-0.998747-0.617054-0.065492-1.218758-0.187265-1.853208-0.187265-0.095167 0-0.183172 0.026606-0.277316 0.028653-181.352371-13.83203-324.626495-162.495908-324.626495-343.373465 0-5.541203 0.174985-11.212366 0.528026-17.050328 50.303686 45.477774 122.172527 74.386174 189.760878 74.386174 26.482141 0 51.101865-4.432962 73.173556-13.176091 80.045057-31.691793 116.434849-81.07041 148.541081-124.637672 32.293497-43.811832 57.798381-78.426187 120.522957-88.434122 11.447726-1.823532 22.673395-2.7486 33.357735-2.7486 103.57803 0 141.216255 85.904509 152.590304 122.839723 1.13894 3.691065 3.446495 6.919597 6.574742 9.196453l78.229712 56.855916L853.388251 419.007049z" p-id="1606" fill="#cdcdcd"></path><path d="M693.110871 262.546601c-27.097148 0-49.143257 22.050202-49.143257 49.143257 0 27.093055 22.045085 49.143257 49.143257 49.143257s49.143257-22.050202 49.143257-49.143257S720.208019 262.546601 693.110871 262.546601zM693.110871 334.027609c-12.316513 0-22.337751-10.017144-22.337751-22.337751s10.021238-22.337751 22.337751-22.337751c12.316513 0 22.337751 10.017144 22.337751 22.337751S705.427384 334.027609 693.110871 334.027609z" p-id="1607" fill="#cdcdcd"></path></svg>